<?xml version="1.0" standalone="no"?>
<!DOCTYPE svg PUBLIC "-//W3C//DTD SVG 20010904//EN"
 "http://www.w3.org/TR/2001/REC-SVG-20010904/DTD/svg10.dtd">
<svg version="1.0" xmlns="http://www.w3.org/2000/svg"
 width="500.000000pt" height="500.000000pt" viewBox="0 0 500.000000 500.000000"
 preserveAspectRatio="xMidYMid meet">

<g transform="translate(0.000000,500.000000) scale(0.100000,-0.100000)"
fill="#000000" stroke="none">
<path d="M0 2500 l0 -2500 2500 0 2500 0 0 2500 0 2500 -2500 0 -2500 0 0
-2500z m1620 230 c0 -5 30 -80 66 -165 60 -142 65 -158 51 -172 -21 -21 -46
-10 -58 27 l-11 30 -84 0 -84 0 -14 -35 c-12 -27 -21 -35 -40 -35 -21 0 -26 5
-26 25 0 34 129 333 148 344 18 10 52 -3 52 -19z m-936 4 c3 -9 6 -78 6 -155
l0 -139 60 0 59 0 3 153 3 152 25 0 25 0 3 -153 3 -153 57 3 57 3 5 150 5 150
25 0 25 0 3 -160 c1 -88 0 -170 -3 -182 -5 -23 -6 -23 -203 -23 -141 0 -201 3
-210 12 -13 13 -18 311 -6 342 8 21 50 21 58 0z m713 0 c9 -25 -24 -44 -74
-44 l-42 0 -3 -152 -3 -153 -25 0 -25 0 -3 153 -3 152 -42 0 c-50 0 -83 19
-74 44 6 14 26 16 147 16 121 0 141 -2 147 -16z m2583 -9 l0 -25 -1055 0
-1055 0 0 -55 0 -55 65 0 c56 0 69 -3 95 -27 22 -20 33 -40 37 -69 5 -36 1
-46 -25 -75 -30 -33 -32 -34 -121 -38 -62 -2 -96 1 -106 9 -12 10 -15 43 -15
170 0 87 3 165 6 174 6 14 111 16 1090 16 l1084 0 0 -25z m-1694 -326 c30 -60
56 -109 59 -109 3 0 30 50 60 110 47 94 59 110 79 110 13 0 27 -7 30 -16 3 -9
6 -78 6 -154 0 -113 -3 -142 -16 -154 -11 -12 -20 -13 -34 -6 -16 8 -20 24
-22 88 l-3 77 -40 -75 c-55 -103 -70 -104 -121 -5 l-39 75 -3 -74 c-2 -42 -8
-78 -15 -84 -12 -10 -446 -15 -1029 -13 -258 1 -268 2 -268 20 0 11 4 23 10
26 5 3 284 6 620 6 l610 -1 0 134 c0 107 3 138 15 150 9 8 22 13 31 9 8 -3 40
-54 70 -114z m546 103 c23 -23 -4 -47 -56 -50 l-46 -3 0 -124 c0 -99 -3 -127
-16 -139 -12 -12 -20 -13 -35 -6 -17 10 -19 22 -19 140 l0 130 -43 0 c-63 0
-93 41 -44 59 35 14 244 8 259 -7z m328 -12 c0 -23 -133 -277 -156 -297 -28
-26 -61 -29 -88 -10 -29 21 -16 51 24 57 23 3 36 11 38 23 2 9 -24 62 -58 117
-64 103 -69 130 -27 130 18 0 30 -12 50 -47 15 -27 37 -66 51 -87 l24 -40 42
85 c23 46 47 87 53 91 13 8 47 -8 47 -22z m258 3 c53 -40 14 -86 -40 -49 -28
20 -61 20 -96 2 -77 -40 -73 -168 6 -205 31 -15 52 -14 86 4 37 20 62 19 70
-1 15 -38 -65 -80 -135 -71 -164 22 -206 250 -59 325 54 28 127 26 168 -5z
m152 -88 c0 -52 3 -95 8 -95 4 0 45 48 91 106 65 82 88 104 105 102 20 -3 21
-7 21 -168 l0 -165 -25 0 c-25 0 -25 1 -28 103 -1 56 -6 102 -10 101 -4 0 -45
-47 -91 -105 -72 -91 -87 -105 -110 -102 l-26 3 1 158 c0 167 6 187 46 166 15
-8 18 -23 18 -104z"/>
<path d="M1557 2589 c-15 -35 -27 -67 -27 -71 0 -5 25 -8 56 -8 63 0 62 -3 20
94 l-22 49 -27 -64z"/>
<path d="M1870 2485 l0 -45 53 0 c53 0 87 19 87 47 0 24 -38 43 -88 43 l-52 0
0 -45z"/>
</g>
</svg>
